HIERARCHY
ROOT root
{
	OFFSET 0.000000 0.000000 0.000000
	CHANNELS 6 Xposition Yposition Zposition Zrotation Yrotation Xrotation
	JOINT lhip
	{
		OFFSET 0.058581 -0.082280 -0.017664
		CHANNELS 3 Zrotation Yrotation Xrotation
		JOINT lknee
		{
			OFFSET 0.043451 -0.386469 0.008037
			CHANNELS 3 Zrotation Yrotation Xrotation
			JOINT lankle
			{
				OFFSET -0.014790 -0.426874 -0.037428
				CHANNELS 3 Zrotation Yrotation Xrotation
				JOINT ltoe
				{
					OFFSET 0.041054 -0.060286 0.122042
					CHANNELS 3 Zrotation Yrotation Xrotation
					End Site
					{
						OFFSET 0.000000 0.000000 0.000000
					}
				}
			}
		}
	}
	JOINT rhip
	{
		OFFSET -0.060310 -0.090513 -0.013543
		CHANNELS 3 Zrotation Yrotation Xrotation
		JOINT rknee
		{
			OFFSET -0.043257 -0.383688 -0.004843
			CHANNELS 3 Zrotation Yrotation Xrotation
			JOINT rankle
			{
				OFFSET 0.019056 -0.420046 -0.034562
				CHANNELS 3 Zrotation Yrotation Xrotation
				JOINT rtoe
				{
					OFFSET -0.034840 -0.062106 0.130323
					CHANNELS 3 Zrotation Yrotation Xrotation
					End Site
					{
						OFFSET 0.000000 0.000000 0.000000
					}
				}
			}
		}
	}
	JOINT lowerback
	{
		OFFSET 0.004439 0.124404 -0.038385
		CHANNELS 3 Zrotation Yrotation Xrotation
		JOINT upperback
		{
			OFFSET 0.004488 0.137956 0.026820
			CHANNELS 3 Zrotation Yrotation Xrotation
			JOINT chest
			{
				OFFSET -0.002265 0.056032 0.002855
				CHANNELS 3 Zrotation Yrotation Xrotation
				JOINT lowerneck
				{
					OFFSET -0.013390 0.211636 -0.033468
					CHANNELS 3 Zrotation Yrotation Xrotation
					JOINT upperneck
					{
						OFFSET 0.010113 0.088937 0.050410
						CHANNELS 3 Zrotation Yrotation Xrotation
						End Site
						{
							OFFSET 0.000000 0.000000 0.000000
						}
					}
				}
				JOINT lclavicle
				{
					OFFSET 0.071702 0.114000 -0.018898
					CHANNELS 3 Zrotation Yrotation Xrotation
					JOINT lshoulder
					{
						OFFSET 0.122921 0.045205 -0.019046
						CHANNELS 3 Zrotation Yrotation Xrotation
						JOINT lelbow
						{
							OFFSET 0.255332 -0.015649 -0.022946
							CHANNELS 3 Zrotation Yrotation Xrotation
							JOINT lwrist
							{
								OFFSET 0.265709 0.012698 -0.007375
								CHANNELS 3 Zrotation Yrotation Xrotation
								End Site
								{
									OFFSET 0.000000 0.000000 0.000000
								}
							}
						}
					}
				}
				JOINT rclavicle
				{
					OFFSET -0.082954 0.112472 -0.023707
					CHANNELS 3 Zrotation Yrotation Xrotation
					JOINT rshoulder
					{
						OFFSET -0.113228 0.046853 -0.008472
						CHANNELS 3 Zrotation Yrotation Xrotation
						JOINT relbow
						{
							OFFSET -0.260127 -0.014369 -0.031269
							CHANNELS 3 Zrotation Yrotation Xrotation
							JOINT rwrist
							{
								OFFSET -0.269108 0.006794 -0.006027
								CHANNELS 3 Zrotation Yrotation Xrotation
								End Site
								{
									OFFSET 0.000000 0.000000 0.000000
								}
							}
						}
					}
				}
			}
		}
	}
}
MOTION
Frames: 16
Frame Time: 0.033333
1.035647 0.152087 0.992437 -4.580616 -0.255009 86.486313 1.984879 1.412815 0.379331 -7.184097 -3.887512 6.836707 2.086742 7.724088 -14.066095 0.000000 -0.000000 0.000000 -2.559065 -0.316743 -21.707195 -0.109965 -6.440708 51.644882 4.630782 -5.966177 -12.225133 0.000000 -0.000000 0.000000 -3.525439 -0.733379 14.282605 0.066920 -0.470312 3.629133 -3.492068 0.152385 3.640917 -0.022863 4.944548 9.288653 -2.140180 -7.114392 17.295020 -18.989049 1.036449 -2.203103 -47.083956 -15.422223 9.522858 7.030231 -34.428488 -5.630447 4.628854 -11.116238 -21.764790 23.406766 0.405324 -1.346147 60.617812 11.050275 18.141412 -15.233067 35.515787 -11.510950 3.879028 7.652133 -21.195389 
1.035304 0.133351 0.991091 -5.324369 -0.430592 87.211788 1.466687 1.578751 0.846392 -6.865671 -4.181847 6.796896 1.685966 8.466999 -14.926305 0.000000 -0.000000 0.000000 -2.864491 -0.746918 -24.300383 -0.873957 -7.316724 45.104453 5.245995 -6.615307 -11.941329 0.000000 -0.000000 0.000000 -3.287390 -1.296071 14.279989 -0.544299 -0.045484 2.932370 -3.427370 0.347722 4.146790 -0.145514 4.947927 9.361480 -1.738740 -6.745055 16.867137 -18.385137 1.069715 -2.340140 -47.092261 -16.742433 9.961736 7.658427 -37.136242 -5.891400 5.914085 -11.191995 -22.498470 23.063552 0.517529 -1.233531 61.282758 11.208630 18.533708 -15.070682 35.278845 -11.458132 3.554706 7.596360 -21.109379 
1.032099 0.113637 0.989761 -5.911742 -0.305735 87.672881 1.471937 2.028464 1.832704 -6.414679 -3.993908 6.549577 1.262689 8.239282 -15.765624 0.000000 -0.000000 0.000000 -2.473679 -1.378022 -25.665551 -1.664319 -9.246094 37.081406 5.445571 -7.227096 -11.143909 0.000000 -0.000000 0.000000 -3.083615 -1.331276 14.672163 -0.853662 0.217835 2.468880 -3.210897 0.273010 4.187368 -0.485974 4.927652 9.162343 -1.466898 -6.946853 16.921913 -17.812427 1.031598 -2.099020 -47.260777 -17.776315 10.161668 8.414635 -39.447666 -5.897084 6.357668 -11.886966 -22.674309 23.049911 0.362945 -0.993243 61.707780 10.978375 18.538460 -14.870847 35.094087 -11.075399 3.210801 7.566836 -20.917835 
1.026653 0.087723 0.986572 -6.286638 -0.259684 88.685886 1.587239 2.601667 2.481805 -6.116158 -3.980533 6.611631 1.088580 7.826564 -17.018414 0.000000 -0.000000 0.000000 -1.670373 -2.587626 -27.153669 -1.919358 -11.519238 26.347036 6.134149 -7.871434 -10.343244 0.000000 -0.000000 0.000000 -3.000926 -1.371644 14.479091 -1.060527 0.093909 2.264959 -2.918335 0.307210 3.999032 -1.092827 5.147981 9.167271 -0.237938 -7.300432 16.368985 -17.061815 1.238450 -1.689908 -47.822508 -18.647455 10.520177 8.945360 -41.947311 -5.231856 6.770466 -12.026122 -23.117177 23.122426 -0.045785 -0.450536 62.086213 10.801889 18.098467 -13.888987 34.262566 -9.752700 3.501728 7.201909 -20.456345 
1.023252 0.071698 0.984498 -6.337038 -0.362264 89.384804 1.617590 2.716600 2.681180 -6.076794 -3.875098 6.813242 0.648535 7.640621 -17.933466 0.000000 -0.000000 0.000000 -1.146030 -2.835467 -27.503884 -1.810736 -12.162565 19.440480 6.238670 -8.092598 -11.950347 0.000000 -0.000000 0.000000 -3.019364 -1.455473 14.441379 -1.093538 -0.000466 2.000896 -2.664215 0.239454 4.105350 -1.039660 5.016961 8.670200 -0.494816 -7.623541 16.462459 -17.061418 1.441040 -1.661774 -47.944297 -18.978259 10.962703 8.892179 -43.052898 -4.754482 6.316886 -12.451955 -23.609050 23.115259 -0.141454 -0.379290 62.093892 10.525489 18.193640 -13.439694 33.345581 -9.416852 3.522241 7.109247 -20.373784 
1.017829 0.049591 0.981107 -6.571342 -0.660863 90.410400 1.420667 3.026790 2.793080 -5.846370 -3.724676 7.305174 0.355348 7.229903 -18.823323 0.000000 -0.000000 0.000000 -0.366659 -3.436179 -27.956996 -1.594691 -13.431926 10.686328 7.109730 -7.761344 -13.143069 0.000000 -0.000000 0.000000 -3.019624 -1.473719 14.145020 -1.339208 -0.109539 1.838781 -2.485783 0.094961 4.044710 -0.915249 4.776827 8.159296 -0.487672 -7.703408 16.321872 -16.955801 1.740319 -1.658031 -48.165315 -19.114870 11.431790 8.420515 -43.893565 -4.012316 6.216034 -12.834737 -23.379471 23.062197 -0.065839 -0.071236 62.339235 10.180061 18.071573 -12.690510 31.517117 -9.358047 3.711380 6.910806 -19.931903 
1.011334 0.025064 0.977367 -6.081509 -1.064387 90.905376 1.316755 3.294834 3.536407 -5.672095 -4.188070 7.984867 0.016540 6.763230 -20.032473 0.000000 -0.000000 0.000000 0.486750 -4.029074 -27.653638 -2.254305 -14.765868 3.895202 7.745380 -8.074317 -13.919123 0.000000 -0.000000 0.000000 -2.954400 -1.575236 14.322623 -1.454541 -0.418259 1.401481 -2.341002 -0.382638 4.263568 -0.428158 4.361260 7.807735 -0.343818 -7.876797 16.360096 -16.882494 2.155684 -1.535165 -48.430289 -19.297118 11.899175 7.196760 -43.504361 -1.910825 5.706830 -13.307060 -23.170335 23.123010 -0.386751 -0.206670 62.562303 9.795947 17.975815 -11.776422 29.186986 -8.875429 4.148581 6.716877 -20.273969 
1.004512 -0.000575 0.973231 -5.582562 -1.500803 90.895825 1.374406 3.523431 4.826768 -5.872193 -5.090446 8.822491 -0.413252 6.746761 -21.113065 0.000000 -0.000000 0.000000 0.304794 -4.391475 -28.531762 -2.457911 -16.553958 3.969028 7.832991 -9.263562 -15.704259 0.000000 -0.000000 0.000000 -2.915741 -2.152018 14.958616 -1.613547 -0.570090 1.121911 -2.365708 -0.322015 3.862383 -1.313800 4.246574 7.648686 0.330224 -8.962865 16.228690 -16.557874 1.897969 -0.883241 -49.330827 -18.952393 11.963016 6.378520 -42.327435 -0.562563 4.928447 -13.621737 -22.038400 23.226724 -0.305869 0.096010 62.515690 9.179552 16.805203 -10.515029 26.470878 -8.011297 5.738256 6.306992 -20.007459 
0.997100 -0.028901 0.969013 -5.484102 -1.858189 90.742956 1.503870 3.947015 6.371825 -6.004727 -5.851366 9.772939 -0.570078 7.087799 -21.876312 0.000000 -0.000000 0.000000 -0.242974 -4.193964 -29.464647 -2.441053 -17.891992 7.665314 7.351975 -10.187237 -15.534217 0.000000 -0.000000 0.000000 -2.273047 -2.804849 15.013885 -1.708168 -0.415371 1.521425 -2.704725 -0.299848 3.969971 -1.039909 3.630968 7.170906 -0.330866 -9.112297 16.500251 -17.185115 1.718282 -0.629428 -49.144265 -18.633686 11.899145 4.875297 -40.603274 0.819588 3.942492 -13.758921 -21.478965 23.076890 -0.164915 0.042721 62.757736 8.832630 16.464231 -9.920815 23.452189 -7.927859 6.176434 6.302931 -19.203187 
0.983393 -0.067098 0.967003 -5.320325 -1.666327 90.197839 2.855143 4.303659 8.309661 -6.644865 -7.146431 12.016901 -1.266086 7.232940 -22.339639 0.000000 -0.000000 0.000000 0.279584 -2.963497 -28.161763 -2.275004 -17.253456 9.473803 5.668032 -11.328344 -14.639305 0.000000 -0.000000 0.000000 -2.063515 -3.229505 15.201019 -1.032032 -0.165780 2.057075 -2.374272 -0.708767 3.965768 -1.000669 2.359442 6.821508 -1.275464 -9.211228 16.360458 -18.358050 1.764331 -0.017725 -49.669231 -17.866852 11.803881 4.172221 -37.515245 2.023382 2.542949 -13.062343 -20.512822 23.889573 0.086408 -0.097870 61.498776 8.328713 15.582022 -9.188312 19.450535 -8.338423 5.996232 5.499765 -18.493244 
0.971616 -0.099092 0.966661 -4.919781 -2.003002 90.636192 3.345841 3.911406 8.159312 -7.116354 -7.508233 15.247232 -1.644513 7.135652 -21.743127 0.000000 -0.000000 0.000000 0.742152 -3.357497 -27.664072 -1.876649 -16.620088 10.127555 4.326968 -11.695454 -11.553159 0.000000 -0.000000 0.000000 -2.120713 -3.175694 14.062709 -0.417120 -0.486683 2.601250 -2.178361 -0.946775 3.974423 -0.938791 1.903736 6.883332 -1.327582 -9.155088 16.520061 -19.061079 2.211877 0.424139 -50.681844 -17.119477 11.775815 3.423698 -34.281257 3.367043 0.321241 -12.508883 -19.386962 24.520811 -0.877091 -0.054852 60.724056 8.305939 14.759410 -9.388335 17.025921 -7.116223 8.963979 5.272699 -16.274709 
0.958859 -0.131922 0.967735 -5.899435 -2.210221 90.624494 3.506698 3.870792 8.372048 -7.346327 -8.050459 18.923088 -2.587181 7.762693 -20.788052 0.000000 -0.000000 0.000000 1.582914 -2.632482 -26.905350 -2.547331 -15.276810 11.693873 3.178014 -12.159725 -9.661029 0.000000 -0.000000 0.000000 -2.008738 -2.941385 13.516095 -0.341051 -0.219415 2.929989 -2.252687 -0.879406 3.758641 -1.259821 1.156237 7.228342 -0.652729 -10.004931 15.801936 -19.074712 2.797222 0.864637 -51.922718 -15.789318 11.847254 2.482682 -31.284498 4.223666 0.925924 -11.650600 -19.450157 24.518497 -1.120460 0.286741 60.697273 7.832611 14.039693 -8.299256 14.690737 -8.492742 5.226032 4.549481 -19.140804 
0.945923 -0.165515 0.971426 -7.132659 -2.293174 90.477206 3.384059 3.401672 7.472917 -7.404445 -7.659613 24.519793 -3.862647 8.253506 -17.809046 0.000000 -0.000000 0.000000 1.477961 -1.750043 -25.666977 -1.792826 -14.379051 13.679521 2.136571 -12.575013 -9.343082 0.000000 -0.000000 0.000000 -1.341796 -3.165548 13.227670 -0.254239 0.139260 3.124738 -2.578085 -0.912331 4.234535 0.248391 0.537405 5.975922 -2.115933 -9.156558 17.180745 -20.585701 4.013259 0.202898 -51.803662 -14.357407 11.593547 1.531588 -28.216854 4.321214 -1.029569 -11.439879 -18.365739 24.933647 -1.489491 -0.226692 60.195062 8.169592 14.210046 -8.298105 12.371445 -9.096825 5.896302 4.400386 -18.077272 
0.932369 -0.198015 0.976147 -8.806865 -1.945018 90.127094 3.725716 3.180966 4.859165 -7.773264 -6.492580 32.743729 -5.240827 8.494500 -12.829573 0.000000 -0.000000 0.000000 2.011045 -1.150342 -24.009783 -0.998781 -13.647218 15.384786 1.175134 -12.015388 -10.074711 0.000000 -0.000000 0.000000 -0.753664 -2.950881 13.323182 -0.074015 0.236482 3.102253 -2.740621 -0.435037 3.647532 -1.249946 0.196001 6.800424 -1.051874 -10.001669 16.542797 -20.830667 4.239510 0.960941 -52.813085 -12.395259 11.235928 1.221089 -25.440944 4.182105 -1.455867 -10.510417 -18.562865 25.168190 -1.194023 0.588068 59.049278 8.158442 12.663408 -7.409538 11.285754 -8.689841 5.927339 3.955656 -19.301909 
0.916669 -0.229827 0.981413 -10.793348 -1.411739 89.731260 4.449602 2.459183 0.850820 -8.087912 -3.959954 42.350709 -5.256074 8.614013 -6.458356 0.000000 -0.000000 0.000000 3.509188 -0.782614 -21.951164 -0.430098 -12.220664 16.333926 -0.852030 -11.489400 -10.559678 0.000000 -0.000000 0.000000 -0.365725 -2.065708 12.923825 0.420357 0.283427 3.499505 -2.667216 -0.458784 3.574755 -0.408869 -0.436930 7.204810 -0.956941 -8.739607 16.955070 -21.587171 4.891878 1.036731 -53.460472 -10.574985 11.043820 1.111448 -23.151750 4.744742 -3.289290 -9.530447 -18.272791 24.919517 -1.157448 0.765176 58.529668 8.543185 12.365280 -7.431383 11.006212 -7.925194 7.434055 4.130980 -19.746917 
0.902513 -0.260658 0.985381 -12.474499 -1.255173 88.855216 4.366034 1.412620 -2.865067 -8.146703 -2.618242 50.992789 -4.188188 8.508931 1.109140 0.000000 -0.000000 0.000000 4.748857 -1.009094 -19.075195 -0.241973 -10.361444 16.613372 -3.037381 -11.414106 -10.822123 0.000000 -0.000000 0.000000 -0.389341 -1.202297 12.869673 0.734981 -0.014507 3.971544 -2.571620 -0.471496 3.673917 0.038681 -1.133045 6.825827 -0.540820 -8.189878 17.307114 -21.487629 5.565549 1.247699 -54.376991 -9.033471 10.940729 0.581098 -22.350712 5.963157 -4.940688 -8.284141 -19.206210 24.568168 -1.233768 0.666682 58.020750 8.659582 12.517624 -7.448247 12.740926 -6.793586 7.967105 3.742863 -20.762771 
